<svg width="20" height="20" viewBox="0 0 20 20" fill="none" xmlns="http://www.w3.org/2000/svg">
<circle cx="9.825" cy="9.825" r="9.825" fill="white"/>
<path d="M14.7526 5.50195H5.6829C5.53403 5.50195 5.39465 5.53855 5.26855 5.59888L10.1963 10.5266L11.3007 9.46516C11.3007 9.46516 11.3008 9.46505 11.3008 9.465C11.3009 9.46496 11.3009 9.46492 11.3009 9.46492L15.1671 5.59897C15.041 5.5386 14.9015 5.50195 14.7526 5.50195Z" fill="black"/>
<path d="M15.6231 6.05469L11.9849 9.69276L15.623 13.3309C15.6833 13.2048 15.7199 13.0654 15.7199 12.9165V6.46889C15.7199 6.32009 15.6834 6.18074 15.6231 6.05469Z" fill="black"/>
<path d="M4.81275 6.05469C4.75242 6.18078 4.71582 6.32016 4.71582 6.46904V12.9167C4.71582 13.0655 4.75238 13.2049 4.81266 13.3309L8.45093 9.69286L4.81275 6.05469Z" fill="black"/>
<path d="M11.529 10.1485L10.4244 11.21C10.3614 11.273 10.2789 11.3045 10.1964 11.3045C10.114 11.3045 10.0315 11.273 9.96851 11.21L8.90689 10.1484L5.26855 13.7865C5.39467 13.8469 5.53413 13.8835 5.68305 13.8835H14.7528C14.9016 13.8835 15.041 13.8469 15.1671 13.7866L11.529 10.1485Z" fill="black"/>
</svg>
