<svg width="20" height="20" viewBox="0 0 20 20" fill="none" xmlns="http://www.w3.org/2000/svg">
<circle cx="9.82547" cy="9.82547" r="9.82547" fill="white"/>
<path d="M15.1247 12.3327C14.9973 12.7929 14.624 13.1557 14.1505 13.2797C13.2855 13.5098 9.82555 13.5098 9.82555 13.5098C9.82555 13.5098 6.36565 13.5098 5.50065 13.2884C5.03631 13.1646 4.65387 12.7928 4.52644 12.3327C4.29883 11.492 4.29883 9.74845 4.29883 9.74845C4.29883 9.74845 4.29883 7.99616 4.52644 7.16424C4.65395 6.70405 5.02721 6.34117 5.50073 6.21723C6.37475 5.98714 9.82563 5.98714 9.82563 5.98714C9.82563 5.98714 13.2855 5.98714 14.1505 6.20846C14.6241 6.33232 14.9973 6.6952 15.1248 7.15539C15.3524 7.99616 15.3524 9.7396 15.3524 9.7396C15.3524 9.7396 15.3615 11.492 15.1247 12.3327Z" fill="black"/>
<path d="M8.75146 7.98362L11.5149 9.74913L8.75146 11.5146V7.98362Z" fill="white"/>
</svg>
